<?xml version="1.0" encoding="UTF-8"?>
<svg id="Layer_2" data-name="Layer 2" xmlns="http://www.w3.org/2000/svg" xmlns:xlink="http://www.w3.org/1999/xlink" viewBox="0 0 1920 1426.27">
  <defs>
    <style>
      .cls-1 {
        fill: url(#linear-gradient-2);
      }

      .cls-2 {
        fill: none;
      }

      .cls-3 {
        fill: url(#linear-gradient-3);
      }

      .cls-4 {
        fill: url(#linear-gradient);
      }
    </style>
    <linearGradient id="linear-gradient" x1="1390.17" y1="746.83" x2="1392.7" y2="664.47" gradientTransform="translate(89.15 -138.16) rotate(-1.38) scale(.88 1.3)" gradientUnits="userSpaceOnUse">
      <stop offset="0" stop-color="#ffa969" stop-opacity="0"/>
      <stop offset=".09" stop-color="#feaf6e" stop-opacity=".08"/>
      <stop offset=".26" stop-color="#feb978" stop-opacity=".23"/>
      <stop offset=".43" stop-color="#fec280" stop-opacity=".35"/>
      <stop offset=".6" stop-color="#fec885" stop-opacity=".43"/>
      <stop offset=".77" stop-color="#fecb88" stop-opacity=".48"/>
      <stop offset=".93" stop-color="#fecd8a" stop-opacity=".5"/>
    </linearGradient>
    <linearGradient id="linear-gradient-2" x1="684.45" y1="899.57" x2="686.41" y2="835.85" gradientTransform="matrix(1,0,0,1,0,0)" xlink:href="#linear-gradient"/>
    <linearGradient id="linear-gradient-3" x1="399.59" y1="659.21" x2="403.57" y2="529.29" gradientUnits="userSpaceOnUse">
      <stop offset="0" stop-color="#ffa969" stop-opacity="0"/>
      <stop offset=".08" stop-color="#feaa70" stop-opacity=".08"/>
      <stop offset=".25" stop-color="#fcae7f" stop-opacity=".23"/>
      <stop offset=".43" stop-color="#fbb08b" stop-opacity=".35"/>
      <stop offset=".6" stop-color="#fab293" stop-opacity=".43"/>
      <stop offset=".77" stop-color="#fab398" stop-opacity=".48"/>
      <stop offset=".93" stop-color="#fab49a" stop-opacity=".5"/>
    </linearGradient>
  </defs>
  <g id="Layer_3" data-name="Layer 3">
    <rect class="cls-2" width="1920" height="1426.27"/>
    <g>
      <path class="cls-4" d="m1200.3,699.64c22.91-30.76,69.08-70.28,102.19-51.76,38.63,21.61,41.04,111.96,72.86,113.72,12.92.72,16.01-13.99,33.01-12.47,24.4,2.18,31.03,33.63,46.34,31.32,23.69-3.57,26.85-65.31,45.94-66.44,14.07-.84,16.5,24.96,46.8,59.02,27.82,31.28,53.47,27.43,53.44,35.04-.08,16.23-116.71,33.25-250.9,28.09-102.25-3.93-95.29-16.15-175.65-13.94-68.97,1.9-106.37,11.79-113.35-11.54-7.5-25.05,22.46-80.48,48.94-79.02,18.4,1.01,23.69,28.87,41.89,28.83,19.13-.03,26.13-30.83,48.5-60.85Z"/>
      <path class="cls-1" d="m449.7,888.94c5.31-3.33,24.79-15.56,45.81-11.48,16.17,3.14,18.19,13,27.63,11.48,10.5-1.7,10.41-14.3,31.27-30.81,8.55-6.77,13.15-8.28,17.45-7.85,6.34.62,6.32,7.27,15.27,12.08.6.32,10.5,5.5,19.63,3.62,9.32-1.92,12.52-10.08,19.63-20.54,7.24-10.65,20.09-29.54,39.27-36.25,12.49-4.37,31.87-5.04,45.08,3.02,22.32,13.63,13.76,44.15,32.72,48.94,3.96,1,10.17,1.14,15.27-1.21,9.17-4.23,8.06-13.48,14.54-15.71,8.24-2.83,20.02,7.46,24.72,11.48,10.11,8.65,7.12,13.74,13.09,16.31,13.01,5.61,27.15-16.04,48.72-13.29,13.86,1.77,15.47,11.66,37.81,18.12,8.66,2.5,14,.17,22.54,3.62,7.6,3.07,17.88,9.86,17.45,13.9-2.2,20.56-285.41-5-441.38,15.1-13.24,1.71-60.49,8.24-64.72-1.21-2.77-6.19,14.02-16.73,18.18-19.33Z"/>
      <path class="cls-3" d="m66.3,635.71c24.1,2.44,40.19-4.13,50.33-10.41,25.77-15.98,28.06-39.41,53.87-47.73,4.48-1.45,21.91-7.06,39.7,1.74,16.86,8.34,21.14,23.26,34.03,22.56,9.95-.54,17.09-9.96,22.68-17.36,15.77-20.84,11.85-37.8,22.68-53.81,11.15-16.46,32.28-28.29,45.37-20.83,11.95,6.81,7.62,24.33,21.97,36.45,11.53,9.74,30.03,11.69,40.4,1.74,11.29-10.83,3.28-26.48,14.89-45.13,14.06-22.61,38.32-32.82,42.41-32.93,8.12-.22,23,8,34,28,6.54,11.88,10.12,12.99,18.57,51.79,7.41,34.04,11.3,51.13,19.85,54.68,13.18,5.46,23.44-19.77,40.4-13.89,10.71,3.71,19.06,18.08,22.68,24.3,6.86,11.8,5.02,15.31,9.22,18.23,12.41,8.63,29.7-21.26,48.2-13.89,5.93,2.36,9.55,7.59,16.3,17.36,10.54,15.24,7.62,22.33,14.18,30.38,7.81,9.59,16.88,6.08,53.87,7.81,22.62,1.06,38.98,1.92,39.7,6.94.78,5.5-17.57,13.67-21.97,15.62-70.38,31.29-360.59-9.58-501.87-15.62-118.77-5.08-218,10.8-221.16-11.28-1.52-10.61,19.95-24.27,39.7-34.71Z"/>
    </g>
  </g>
</svg>