<?xml version="1.0" encoding="UTF-8"?>
<svg id="Layer_2" data-name="Layer 2" xmlns="http://www.w3.org/2000/svg" xmlns:xlink="http://www.w3.org/1999/xlink" viewBox="0 0 1920.36 1426.27">
  <defs>
    <style>
      .cls-1 {
        fill: url(#Sunsetforeground-4);
      }

      .cls-2 {
        fill: url(#linear-gradient-2);
      }

      .cls-3 {
        fill: url(#Sunsetforeground-11);
      }

      .cls-4 {
        fill: url(#Sunsetforeground-8);
      }

      .cls-5 {
        fill: url(#linear-gradient-6);
      }

      .cls-6 {
        fill: url(#Sunsetforeground-6);
      }

      .cls-7 {
        fill: url(#Sunsetforeground-14);
      }

      .cls-8 {
        fill: url(#Sunsetforeground);
      }

      .cls-9 {
        fill: url(#Sunsetforeground-22);
      }

      .cls-10 {
        fill: url(#linear-gradient-11);
      }

      .cls-11 {
        fill: url(#Sunsetforeground-7);
      }

      .cls-12 {
        fill: url(#linear-gradient-10);
      }

      .cls-13 {
        fill: url(#Sunsetforeground-13);
      }

      .cls-14 {
        fill: url(#Sunsetforeground-19);
      }

      .cls-15 {
        fill: url(#Sunsetforeground-2);
      }

      .cls-16 {
        fill: url(#Sunsetforeground-3);
      }

      .cls-17 {
        fill: url(#Sunsetforeground-16);
      }

      .cls-18 {
        fill: url(#Sunsetforeground-20);
      }

      .cls-19 {
        fill: url(#linear-gradient-5);
      }

      .cls-20 {
        fill: url(#Sunsetforeground-10);
      }

      .cls-21 {
        fill: url(#Sunsetforeground-17);
      }

      .cls-22 {
        fill: none;
      }

      .cls-23 {
        fill: url(#Sunsetforeground-18);
      }

      .cls-24 {
        fill: url(#linear-gradient-7);
      }

      .cls-25 {
        fill: url(#Sunsetforeground-15);
      }

      .cls-26 {
        fill: url(#Sunsetforeground-5);
      }

      .cls-27 {
        fill: url(#Sunsetforeground-21);
      }

      .cls-28 {
        fill: url(#linear-gradient-9);
      }

      .cls-29 {
        fill: url(#linear-gradient-3);
      }

      .cls-30 {
        fill: url(#Sunsetforeground-9);
      }

      .cls-31 {
        fill: url(#linear-gradient);
      }

      .cls-32 {
        fill: url(#linear-gradient-4);
      }

      .cls-33 {
        fill: url(#linear-gradient-8);
      }

      .cls-34 {
        fill: url(#linear-gradient-12);
      }

      .cls-35 {
        fill: url(#Sunsetforeground-12);
      }
    </style>
    <linearGradient id="Sunsetforeground" x1="1090.29" y1="1340.06" x2="1095.73" y2="1054.16" gradientUnits="userSpaceOnUse">
      <stop offset=".04" stop-color="#fea36f"/>
      <stop offset=".45" stop-color="#b64d8b"/>
      <stop offset=".78" stop-color="#1f3151"/>
      <stop offset=".84" stop-color="#002c45"/>
    </linearGradient>
    <linearGradient id="Sunsetforeground-2" data-name="Sunsetforeground" x1="1110.15" y1="1338.65" x2="1115.59" y2="1052.75" xlink:href="#Sunsetforeground"/>
    <linearGradient id="Sunsetforeground-3" data-name="Sunsetforeground" x1="713.46" y1="1375.08" x2="718.79" y2="1065.74" xlink:href="#Sunsetforeground"/>
    <linearGradient id="Sunsetforeground-4" data-name="Sunsetforeground" x1="733.42" y1="1375.42" x2="738.76" y2="1066.09" xlink:href="#Sunsetforeground"/>
    <linearGradient id="Sunsetforeground-5" data-name="Sunsetforeground" x1="884.53" y1="1504.9" x2="860.53" y2="1026.23" xlink:href="#Sunsetforeground"/>
    <linearGradient id="Sunsetforeground-6" data-name="Sunsetforeground" x1="904.46" y1="1503.9" x2="880.46" y2="1025.24" xlink:href="#Sunsetforeground"/>
    <linearGradient id="linear-gradient" x1="962.9" y1="1413.55" x2="957.56" y2="1166.88" gradientUnits="userSpaceOnUse">
      <stop offset="0" stop-color="#fea36f"/>
      <stop offset=".52" stop-color="#b64d8b"/>
      <stop offset=".92" stop-color="#1f3151"/>
      <stop offset="1" stop-color="#002c45"/>
    </linearGradient>
    <linearGradient id="Sunsetforeground-7" data-name="Sunsetforeground" x1="382.34" y1="1517.65" x2="386.34" y2="1025.65" xlink:href="#Sunsetforeground"/>
    <linearGradient id="Sunsetforeground-8" data-name="Sunsetforeground" x1="406.38" y1="1517.85" x2="410.38" y2="1025.85" xlink:href="#Sunsetforeground"/>
    <linearGradient id="Sunsetforeground-9" data-name="Sunsetforeground" x1="619.39" y1="1519.58" x2="623.39" y2="1027.58" xlink:href="#Sunsetforeground"/>
    <linearGradient id="Sunsetforeground-10" data-name="Sunsetforeground" x1="638.2" y1="1519.73" x2="642.2" y2="1027.73" xlink:href="#Sunsetforeground"/>
    <linearGradient id="Sunsetforeground-11" data-name="Sunsetforeground" x1="1362.29" y1="1603.53" x2="1378.29" y2="944.86" xlink:href="#Sunsetforeground"/>
    <linearGradient id="Sunsetforeground-12" data-name="Sunsetforeground" x1="1405.03" y1="1395.31" x2="1387.69" y2="989.97" xlink:href="#Sunsetforeground"/>
    <linearGradient id="Sunsetforeground-13" data-name="Sunsetforeground" x1="1479.21" y1="1289.22" x2="1466.13" y2="1046.11" xlink:href="#Sunsetforeground"/>
    <linearGradient id="Sunsetforeground-14" data-name="Sunsetforeground" x1="1503.21" y1="1288.3" x2="1490.12" y2="1045.19" xlink:href="#Sunsetforeground"/>
    <linearGradient id="linear-gradient-2" x1="1036.08" y1="1367.55" x2="1016.08" y2="1062.22" gradientUnits="userSpaceOnUse">
      <stop offset="0" stop-color="#b64d8b"/>
      <stop offset=".11" stop-color="#af4c89"/>
      <stop offset=".27" stop-color="#9c4a84"/>
      <stop offset=".46" stop-color="#7e487b"/>
      <stop offset=".67" stop-color="#53446f"/>
      <stop offset=".89" stop-color="#1d3f61"/>
      <stop offset="1" stop-color="#003d59"/>
    </linearGradient>
    <linearGradient id="linear-gradient-3" x1="975.36" y1="1500.35" x2="951.36" y2="1021.68" xlink:href="#linear-gradient-2"/>
    <linearGradient id="Sunsetforeground-15" data-name="Sunsetforeground" x1="992.74" y1="1499.48" x2="968.74" y2="1020.81" xlink:href="#Sunsetforeground"/>
    <linearGradient id="Sunsetforeground-16" data-name="Sunsetforeground" x1="1205.26" y1="1324.19" x2="1198.6" y2="1124.19" xlink:href="#Sunsetforeground"/>
    <linearGradient id="Sunsetforeground-17" data-name="Sunsetforeground" x1="1193.9" y1="1324.57" x2="1187.23" y2="1124.57" xlink:href="#Sunsetforeground"/>
    <linearGradient id="Sunsetforeground-18" data-name="Sunsetforeground" x1="1270.67" y1="1325.15" x2="1251.12" y2="1098.92" xlink:href="#Sunsetforeground"/>
    <linearGradient id="Sunsetforeground-19" data-name="Sunsetforeground" x1="1322.71" y1="1106.31" x2="1329.37" y2="1287.65" xlink:href="#Sunsetforeground"/>
    <linearGradient id="Sunsetforeground-20" data-name="Sunsetforeground" x1="1319.79" y1="1398.95" x2="1302.46" y2="993.62" xlink:href="#Sunsetforeground"/>
    <linearGradient id="Sunsetforeground-21" data-name="Sunsetforeground" x1="789.07" y1="1376.38" x2="794.4" y2="1067.05" xlink:href="#Sunsetforeground"/>
    <linearGradient id="linear-gradient-4" x1="848.15" y1="1259.33" x2="843.8" y2="1134.15" xlink:href="#linear-gradient-2"/>
    <linearGradient id="linear-gradient-5" x1="833.29" y1="1259.69" x2="828.94" y2="1134.52" xlink:href="#linear-gradient-2"/>
    <linearGradient id="linear-gradient-6" x1="910.56" y1="1258.49" x2="909.47" y2="1169.35" xlink:href="#linear-gradient-2"/>
    <linearGradient id="linear-gradient-7" x1="952.94" y1="1258.14" x2="951.86" y2="1168.93" xlink:href="#linear-gradient-2"/>
    <linearGradient id="linear-gradient-8" x1="1160.32" y1="1315.33" x2="1165.76" y2="1029.2" xlink:href="#linear-gradient-2"/>
    <linearGradient id="linear-gradient-9" x1="506.89" y1="1312.13" x2="512.33" y2="1026" xlink:href="#linear-gradient-2"/>
    <linearGradient id="linear-gradient-10" x1="571.67" y1="1313.08" x2="577.11" y2="1026.55" xlink:href="#linear-gradient-2"/>
    <linearGradient id="Sunsetforeground-22" data-name="Sunsetforeground" x1="1081.67" y1="1328.32" x2="1088.34" y2="1168.77" xlink:href="#Sunsetforeground"/>
    <linearGradient id="linear-gradient-11" x1="1045.13" y1="1400.93" x2="1037.13" y2="1182.26" gradientUnits="userSpaceOnUse">
      <stop offset=".04" stop-color="#fea36f"/>
      <stop offset=".69" stop-color="#b64d8b"/>
      <stop offset=".9" stop-color="#1f3151"/>
      <stop offset=".94" stop-color="#002c45"/>
    </linearGradient>
    <linearGradient id="linear-gradient-12" x1="1057.41" y1="1400.48" x2="1049.41" y2="1181.81" gradientUnits="userSpaceOnUse">
      <stop offset=".02" stop-color="#fea36f"/>
      <stop offset=".65" stop-color="#b64d8b"/>
      <stop offset=".88" stop-color="#1f3151"/>
      <stop offset=".92" stop-color="#002c45"/>
    </linearGradient>
  </defs>
  <g id="Layer_3" data-name="Layer 3">
    <rect class="cls-22" x=".36" width="1920" height="1426.27"/>
    <g>
      <polygon class="cls-8" points="1092.57 1170.45 1078.14 1220.36 1107 1220.36 1092.57 1170.45"/>
      <polygon class="cls-15" points="1112.43 1168.85 1098 1218.76 1126.86 1218.76 1112.43 1168.85"/>
      <polygon class="cls-16" points="715.91 1163.52 695.94 1232.6 735.88 1232.6 715.91 1163.52"/>
      <polygon class="cls-1" points="735.88 1163.52 715.91 1232.6 755.86 1232.6 735.88 1163.52"/>
      <polygon class="cls-26" points="870.32 1152.23 850.34 1221.31 890.29 1221.31 870.32 1152.23"/>
      <polygon class="cls-6" points="890.29 1152.23 870.32 1221.31 910.26 1221.31 890.29 1152.23"/>
      <path class="cls-31" d="m0,1426.27c45,0,27.13,0,27.13,0h1892.87v-293.27l-28.86,8.08-270.32,18.67-322.66,36.18-153.16,12.41-352.53,15.47-1.54.02-234.08-3.09-204.57-8.27s-244.68,16.32-324.55,2c-7.29-1.31-27.73-10.47-27.73-10.47v222.27Z"/>
      <g>
        <polygon class="cls-11" points="384.62 1154.03 360.58 1237.19 408.67 1237.19 384.62 1154.03"/>
        <polygon class="cls-4" points="408.67 1154.03 384.62 1237.19 432.71 1237.19 408.67 1154.03"/>
      </g>
      <polygon class="cls-30" points="621.7 1169.9 602.89 1234.98 640.52 1234.98 621.7 1169.9"/>
      <polygon class="cls-20" points="640.52 1169.9 621.7 1234.98 659.33 1234.98 640.52 1169.9"/>
      <polygon class="cls-3" points="1372.29 1108.83 1348.25 1191.98 1396.33 1191.98 1372.29 1108.83"/>
      <polygon class="cls-35" points="1396.33 1108.83 1372.29 1191.98 1420.37 1191.98 1396.33 1108.83"/>
      <polygon class="cls-13" points="1473.66 1102.81 1449.61 1185.97 1497.7 1185.97 1473.66 1102.81"/>
      <polygon class="cls-7" points="1497.7 1102.81 1473.66 1185.97 1521.74 1185.97 1497.7 1102.81"/>
      <polygon class="cls-2" points="1026.33 1170.3 1005.29 1218.78 1047.37 1218.78 1026.33 1170.3"/>
      <g>
        <polygon class="cls-29" points="961.23 1158.37 943.81 1218.64 978.66 1218.64 961.23 1158.37"/>
        <polygon class="cls-25" points="978.66 1158.37 961.23 1218.64 996.08 1218.64 978.66 1158.37"/>
      </g>
      <g>
        <polygon class="cls-17" points="1201.75 1179.42 1213.12 1218.76 1190.37 1218.76 1201.75 1179.42"/>
        <polygon class="cls-21" points="1190.37 1179.42 1201.75 1218.76 1179 1218.76 1190.37 1179.42"/>
      </g>
      <polygon class="cls-23" points="1260.04 1160.79 1278 1202.16 1242.09 1202.16 1260.04 1160.79"/>
      <g>
        <polygon class="cls-14" points="1326.13 1148 1341 1199.44 1311.26 1199.44 1326.13 1148"/>
        <polygon class="cls-18" points="1311.26 1148 1326.13 1199.44 1296.39 1199.44 1311.26 1148"/>
      </g>
      <polygon class="cls-27" points="791.59 1189.05 809.54 1230.43 773.63 1230.43 791.59 1189.05"/>
      <g>
        <polygon class="cls-32" points="847.14 1178.87 862.01 1230.31 832.27 1230.31 847.14 1178.87"/>
        <polygon class="cls-19" points="832.27 1178.87 847.14 1230.31 817.4 1230.31 832.27 1178.87"/>
      </g>
      <polygon class="cls-5" points="910.11 1188.78 896.04 1221.2 924.18 1221.2 910.11 1188.78"/>
      <polygon class="cls-24" points="952.49 1204.8 941.06 1221.2 963.92 1221.2 952.49 1204.8"/>
      <polygon class="cls-33" points="1161.86 1191.23 1143.15 1234.34 1180.57 1234.34 1161.86 1191.23"/>
      <polygon class="cls-28" points="508.18 1194.49 486.67 1244.05 529.69 1244.05 508.18 1194.49"/>
      <polygon class="cls-12" points="572.98 1218.97 555.5 1244.05 590.45 1244.05 572.98 1218.97"/>
      <polygon class="cls-9" points="1085.26 1208.31 1070.41 1242.51 1100.1 1242.51 1085.26 1208.31"/>
      <g>
        <polygon class="cls-10" points="1039.33 1199.9 1027.04 1242.41 1051.63 1242.41 1039.33 1199.9"/>
        <polygon class="cls-34" points="1051.63 1199.9 1039.33 1242.41 1063.92 1242.41 1051.63 1199.9"/>
      </g>
    </g>
  </g>
</svg>