<?xml version="1.0" encoding="UTF-8"?>
<svg id="Layer_2" data-name="Layer 2" xmlns="http://www.w3.org/2000/svg" xmlns:xlink="http://www.w3.org/1999/xlink" viewBox="0 0 1920.8 1426.27">
  <defs>
    <style>
      .cls-1 {
        fill: url(#linear-gradient-2);
      }

      .cls-2 {
        fill: url(#linear-gradient-6);
      }

      .cls-3 {
        fill: url(#Sunsetforeground);
      }

      .cls-4 {
        fill: url(#linear-gradient-5);
      }

      .cls-5 {
        fill: none;
      }

      .cls-6 {
        fill: url(#linear-gradient-7);
      }

      .cls-7 {
        fill: url(#linear-gradient-3);
      }

      .cls-8 {
        fill: url(#linear-gradient);
      }

      .cls-9 {
        fill: url(#linear-gradient-4);
      }
    </style>
    <linearGradient id="linear-gradient" x1="911.69" y1="1318.22" x2="891.69" y2="564.89" gradientUnits="userSpaceOnUse">
      <stop offset=".24" stop-color="#fea46e"/>
      <stop offset=".5" stop-color="#b64d8b"/>
      <stop offset=".62" stop-color="#b34c89"/>
      <stop offset=".7" stop-color="#aa4a86"/>
      <stop offset=".76" stop-color="#9b4880"/>
      <stop offset=".82" stop-color="#874478"/>
      <stop offset=".87" stop-color="#6c3f6e"/>
      <stop offset=".92" stop-color="#4a3961"/>
      <stop offset=".96" stop-color="#243252"/>
      <stop offset="1" stop-color="#002c45"/>
    </linearGradient>
    <linearGradient id="linear-gradient-2" x1="1230.37" y1="1353.97" x2="1105.03" y2="831.31" gradientUnits="userSpaceOnUse">
      <stop offset=".16" stop-color="#fea36f"/>
      <stop offset=".72" stop-color="#b64d8b"/>
      <stop offset=".8" stop-color="#854478"/>
      <stop offset=".98" stop-color="#0b2e49"/>
      <stop offset="1" stop-color="#002c45"/>
    </linearGradient>
    <linearGradient id="linear-gradient-3" x1="775.98" y1="1376.47" x2="511.98" y2="755.13" gradientUnits="userSpaceOnUse">
      <stop offset="0" stop-color="#fea46f"/>
      <stop offset=".51" stop-color="#b64d8b"/>
      <stop offset=".57" stop-color="#9c4881"/>
      <stop offset=".87" stop-color="#2c3456"/>
      <stop offset="1" stop-color="#002c45"/>
    </linearGradient>
    <linearGradient id="Sunsetforeground" x1="922.2" y1="1343.33" x2="922.2" y2="1004.67" gradientUnits="userSpaceOnUse">
      <stop offset=".04" stop-color="#fea36f"/>
      <stop offset=".45" stop-color="#b64d8b"/>
      <stop offset=".78" stop-color="#1f3151"/>
      <stop offset=".84" stop-color="#002c45"/>
    </linearGradient>
    <linearGradient id="linear-gradient-4" x1="396.51" y1="1431.95" x2="299.17" y2="23.95" gradientUnits="userSpaceOnUse">
      <stop offset=".11" stop-color="#fda270"/>
      <stop offset=".21" stop-color="#b64d8b"/>
      <stop offset=".26" stop-color="#a34983"/>
      <stop offset=".32" stop-color="#8e467c"/>
      <stop offset=".33" stop-color="#8b457b"/>
      <stop offset=".41" stop-color="#613d6a"/>
      <stop offset=".49" stop-color="#3e375d"/>
      <stop offset=".57" stop-color="#223252"/>
      <stop offset=".65" stop-color="#0f2e4a"/>
      <stop offset=".74" stop-color="#032c46"/>
      <stop offset=".83" stop-color="#002c45"/>
    </linearGradient>
    <linearGradient id="linear-gradient-5" x1="1554.89" y1="1206.71" x2="1557.56" y2="677.38" gradientUnits="userSpaceOnUse">
      <stop offset=".32" stop-color="#fea36f"/>
      <stop offset=".54" stop-color="#b64d8b"/>
      <stop offset=".6" stop-color="#a94a86"/>
      <stop offset=".69" stop-color="#884479"/>
      <stop offset=".82" stop-color="#523a64"/>
      <stop offset=".98" stop-color="#082d48"/>
      <stop offset="1" stop-color="#002c45"/>
    </linearGradient>
    <linearGradient id="linear-gradient-6" x1="478.31" y1="1526.05" x2="400.98" y2="604.71" gradientUnits="userSpaceOnUse">
      <stop offset=".04" stop-color="#fea36f"/>
      <stop offset=".37" stop-color="#b64d8b"/>
      <stop offset=".79" stop-color="#1f3151"/>
      <stop offset=".87" stop-color="#002c45"/>
    </linearGradient>
    <linearGradient id="linear-gradient-7" x1="1546.5" y1="1313.97" x2="1422.5" y2="403.3" gradientUnits="userSpaceOnUse">
      <stop offset="0" stop-color="#fea46e"/>
      <stop offset=".19" stop-color="#b64d8b"/>
      <stop offset=".25" stop-color="#9e4882"/>
      <stop offset=".39" stop-color="#633d6b"/>
      <stop offset=".59" stop-color="#042c46"/>
      <stop offset=".6" stop-color="#002c45"/>
    </linearGradient>
  </defs>
  <g id="Layer_3" data-name="Layer 3">
    <rect class="cls-5" x=".71" width="1920" height="1426.27"/>
    <g>
      <path class="cls-8" d="m1017.54,981.29l-18.65-14.88c-.83-.66-1.8-1.11-2.83-1.33l-17.08-3.53c-2.22-.46-4.52.23-6.12,1.83l-1.98,1.98c-1.48,1.48-3.57,2.19-5.65,1.91l-13.9-1.85c-3.32-.44-6.45,1.62-7.36,4.84l-6.28,22.25c-.37,1.31-1.12,2.47-2.17,3.34l-5.72,4.77c-1.21,1.01-2.73,1.56-4.31,1.56h0c-2.7,0-5.14,1.62-6.2,4.11l-4.95,11.7c-1.05,2.49-3.49,4.11-6.2,4.11h-9.54c-.87,0-1.81.03-5.04,1.36l-11.91,5.03c-.81.33-1.67.5-2.55.5h-59.89c-1.98,0-3.87.88-5.15,2.39l-8.22,9.77c-1.28,1.52-3.16,2.39-5.15,2.39h-34.39c-.51,0-1.03.06-1.53.18l-21.63,5.05c-.39.09-.78.22-1.15.38l-83.12,36.01c-4.13,1.79-5.37,7.04-2.48,10.49l31.85,38.03,53.04,66.26c.34.42.73.8,1.15,1.13l74.22,57.01c1.43,1.1,3.25,1.58,5.03,1.33l139.74-19.63c.73-.1,1.45-.33,2.11-.66l152.52-77.33c1.34-.68,2.42-1.79,3.06-3.16l36.39-78.12c.6-1.29.78-2.74.5-4.14l-14.96-76.21c-.57-2.9-2.96-5.08-5.9-5.39l-114.13-12.04c-1.28-.13-2.49-.63-3.49-1.43Z"/>
      <path class="cls-1" d="m1364.92,879.89l267.47,44.51c8.74,1.46,11.62,12.59,4.68,18.1l-522.22,414.61c-2.49,1.97-5.75,2.68-8.83,1.91l-404.34-100.65c-8.17-2.03-10.52-12.51-4.01-17.84l100.07-81.87c.39-.32.76-.67,1.09-1.04l40.85-44.98c.39-.43.81-.82,1.26-1.17l71.36-55.95,80.7-66.92c.18-.15.36-.29.55-.42l14.97-10.79c.17-.12.34-.24.52-.35l37.05-23.4c.99-.62,1.86-1.41,2.58-2.33l7.07-9c1.94-2.47,4.9-3.91,8.04-3.91h13.87c3.53,0,6.8-1.82,8.67-4.81h0c1.35-2.16,3.47-3.74,5.92-4.43l35.66-9.83c2.89-.44,4.66-1.39,5.12-1.45l29.66-4.55c4.22,0,6.96-.75,8.01-1.3l32.1-17.37c4.33-2,5.99-2.23,7.65-2.23h23.47c2.34,0,4.77-.66,8.55-3.55l13.7-11.53c2.85-1.69,4.96-2.36,6.96-2.8l8.22.22c3.33,0,4.58.54,5.78,1.02l40.29,15.93c4.59.72,7.42.72,8.7.72h8.18c3.82-.56,5.97-1.76,7.27-2.33l23.34-10.22"/>
      <path class="cls-7" d="m917.13,1242.16h0c5.38,2.96,3.28,11.13-2.86,11.13h-26.58c-.25,0-.49-.02-.74-.05l-55.74-6.97c-.72-.09-1.44-.05-2.14.12l-44.2,10.81c-.46.11-.93.17-1.41.17h-50.86l-17.86.49c-.34,0-.69-.01-1.03-.06l-29.61-4.36c-.68-.1-1.38-.08-2.05.06l-21.28,4.35c-.11.02-.22.04-.34.06l-24.92,3.61c-.63.09-1.25.29-1.82.57l-14.97,7.54-51.68,27.67c-2.58,1.38-5.79.67-7.55-1.67l-40.08-53.54c-.52-.69-.88-1.49-1.06-2.33l-26.76-126.72c-.02-.11-.04-.23-.06-.34l-14.66-97.03c-.08-.56-.09-1.13-.01-1.69l15.13-111.28c.35-2.56,2.31-4.6,4.86-5.04l141.53-24.64c2.31-.4,4.65.6,5.95,2.55l14.43,20.76c1,2.67,2.36,3.84,3.4,4.3l12.91,5.65c1.19.52,2.57,2.5,3.68,5.39l10.78,18.22c1.22,2.78,2.78,4,4.67,5.89l25.26,19.67c.56.44,1.85,1.44,3.3,3.44l8.04,14.2c.16.25.29.51.41.79l13.81,32.31c.21.48.85,1.6.63,3.6-.45,4.02,2.97,20.2,4.79,22.92s6.72,12.03,7.73,13.95c.12.24.23.47.32.72l8.71,23.96c.23.62.55,1.2.97,1.71l18.66,22.96c.42.51.75,1.09.97,1.71l8.13,22.36c.47,1.28,1.36,2.36,2.52,3.06l20.24,12.15c.62.37,1.16.85,1.6,1.41l10.57,13.39c.17.21.32.43.45.66l26.99,45.73c.25.43.56.83.91,1.18l32.42,32.42c.5.5,1.08.9,1.72,1.2l23.34,10.7c.13.06.26.13.39.19Z"/>
      <polygon class="cls-3" points="453.44 1426.27 730.2 1426.27 860.42 1426.27 1057.52 1426.27 1257.69 1426.27 1390.97 1426.27 1356.47 1182.68 464.01 1227.62 453.44 1426.27"/>
      <path class="cls-9" d="m435.65,1171.37c10.18,9.9,35.67,32.63,48.11,41.41,2.91,2.05,5.48,4.53,7.66,7.34l14.04,18.08c7.33,9.43,18.83,14.67,30.76,13.99,3.16-.18,5.44-.27,6.82.42,3.58,1.79,27.77-.73,36.46,1.36,3.03.73,6.12,1.19,9.23,1.19h10.57c5.76,0,11.43,1.37,16.56,3.99,13.02,6.67,36.35,18.94,37.47,19.5,4.09,2.04,22.69,1.26,27.8,4.33.69.42,1.91.56,3.51.56,19.9-.02,35.89-16.45,35.89-36.34v-3.74c0-1.73-.12-3.45-.37-5.16l-4.55-31.78c-.33-2.29-.87-4.55-1.63-6.73l-7.57-21.88c-.32-.92-.6-1.86-.85-2.81l-15.32-59.36c-.44-1.69-.75-3.42-.94-5.15l-4.57-42.01c-.17-1.57-.44-3.13-.82-4.66l-8.63-35.48-11.7-50.72c-.37-1.59-.63-3.21-.78-4.83l-5.75-62.27c-.1-1.11-.15-2.23-.15-3.34v-55.26c0-2.21-.2-4.41-.6-6.58l-5.95-32.28c-.4-2.17-.6-4.38-.6-6.58v-28.34s-1.02-24.51-5.11-26.55-34.72-13.28-39.83-15.32c-5.11-2.04-49.02-17.36-56.17-18.38-7.15-1.02-37.79-20.43-41.87-22.47-4.09-2.04-55.15-20.43-59.23-23.49-3.07-2.3-21.11-7.48-29.91-9.92-3.16-.87-6.41-1.32-9.69-1.32h-18.52c-2.78,0-5.55.32-8.26.95l-53.13,12.4c-2.71.63-5.48.95-8.26.95h-46.13c-1.18,0-2.36.06-3.53.17l-80.22,7.83c-1.17.11-2.35.17-3.53.17h-56.55c-1.29,0-2.57-.07-3.85-.21l-61.47-6.56c-8.52-.91-17.1,1.22-24.2,6.02l-13.93,9.41c-14.49,9.79-19.96,28.52-13.01,44.57l23.81,54.97c.9,2.07,1.99,4.06,3.26,5.93l39.33,58.09c1.78,2.62,3.2,5.47,4.24,8.46l25.71,74.09c1.86,5.37,4.95,10.22,9.03,14.18,12.79,12.4,41.03,40.13,41.82,44.08,1.02,5.11,36.26,37.79,38.3,40.85,1.53,2.29,34,36.68,50.2,53.79,5.83,6.16,13.63,10.08,22.05,11.1l23.54,2.84c3.86.46,7.62,1.55,11.13,3.2l120.07,56.53c3.62,1.7,6.92,4.01,9.78,6.79Z"/>
      <path class="cls-4" d="m1317.71,930.56l7.67-22.2c.34-1.02,2.89-6.33,5.89-8.56l9.37-5.16c1-.6,1.73-1.57,2.03-2.71h0c3.12-11.95,8.83-32.77,12.69-46.28h0c.56-5.33,4.26-9.99,4.33-10.11,4.11-6.11,7.67-15.44,7.67-15.44,2.78-4.56,5.49-7.08,7.13-7.08h0c2.47,0,4.48-2,4.48-4.48,0,0-2.04-17.5-.72-25.22.67-3.89,0-6.78,3.22-10.33,3.76-4.14,1.58-3.75,6.04-7.18.67-.51,0,0,11.07-10.36,12.9-12.07,18.59-9.14,24.93-7.64,6.68,1.59,5-.78,9.78-1.33,5.78-.67,18.98,7.32,18.98,7.32,2.33,1.22,3.44.78,5.78.44l3.56-1.16c.73-.21,3.59-.01,4.33.16l17.09,3.75c6.33.56,6.77,2.52,8.13,3.25,6.76,3.64,17.44,13.33,23.27,13.8,8.87.71,12.16.77,16.4.87,2.74.06,4.47-2.06,4.11-4.78l-.78-23.56c-.24-3.58,1.22-5.44,4.33-7.33l4.2-4.15c1.08-1.08,5.63-1.2,7.12-.88h0c9.96,2.34,33.46,7.79,52.22,12.11h0c6,1.78,9.89,1.78,12.56,3.44h0c9.72,5.02,35,17.34,56.2,27.38h0c.18.09.37.16.57.22l18.98,5.99c.09.03.17.06.26.09l12.79,4.92c.24.09.48.16.73.21l14.2,2.84c.5.1.97.28,1.4.54l87.58,51.93c1.36.81,2.19,2.27,2.19,3.85v112.35c0,.5-.08,1-.25,1.47l-35.26,101.1c-.36,1.03-1.08,1.89-2.02,2.42l-81.78,46.25c-.48.27-1.01.45-1.56.53h0c-45.88,6.67-111.56,16.94-145.95,22.81h0c-.19.03-.38.05-.57.06h0c-41.32,1.68-112.71,5.77-158.66,9.08h0c-.88.06-1.75-.13-2.52-.56l-76.51-43.1c-1.54-.87-2.42-2.56-2.26-4.32l15.37-164.29c.03-.34.1-.67.21-.99Z"/>
      <path class="cls-2" d="m7.11,629.15h0c.38,1.06,1.26,1.87,2.34,2.17l15.84,4.4c.53.15,1.02.42,1.43.8l25.72,23.74c.15.13.3.26.47.36l16.95,10.97c.11.07.21.14.31.22l27.22,22.18c.14.11.27.24.39.37l18.05,20.05c.1.12.2.24.29.37l14.32,21.01c.55.81,1.42,1.35,2.38,1.49l25.88,3.7c.78.11,1.49.48,2.04,1.05l17.55,18.52s24.51,25.53,25.53,30.64,13.28,20.43,15.32,23.49c1.87,2.81,13.17,21.9,15.05,25.08.18.3.4.57.65.8l10.19,9.27c.43.39.75.88.94,1.42l12.84,36.54c.1.28.16.56.18.85.29,3.37,2.32,25.41,6.09,29.19,4.09,4.09,39.83,17.36,42.89,21.45s33.7,36.77,40.85,41.87c6.38,4.56,38.02,12.38,44.71,14,.8.19,1.51.67,2,1.34,4.14,5.7,23.97,33.09,25.8,36.75l1.76,3.52c.19.38.44.72.75,1l25.46,23.5c.4.37.71.83.9,1.34,1.33,3.54,7.47,18.36,19.13,23.74,13.28,6.13,31.66,12.62,36.77,18.74,5.11,6.13,21.45,26.19,33.7,30.28,12.26,4.09,45.96,6.13,50.04,8.17s23.49,34.72,27.57,38.81c4.09,4.09,32.68,16.34,36.77,18.38s43.91,15.32,49.02,18.38c5.11,3.06,53.11,36.77,56.17,37.79,3,1,136.89,57.68,142.78,60.17.14.06.27.12.4.2l27.77,16.28c1.03.6,1.68,1.69,1.72,2.88l2.96,86.1c.07,1.97-1.51,3.6-3.48,3.6H3.48C1.56,1426.12,0,1424.56,0,1422.64l.35-799.64s5.44,2.48,6.76,6.15Z"/>
      <path class="cls-6" d="m1920.8,1344.21v-7.85l-.44,89.64s-4.74-.29-10.71-.29h-793.08c-6.03,0-10.9-4.93-10.84-10.96l1.66-144.49c.03-2.34.81-4.61,2.24-6.47l18.52-24.14c.81-1.05,1.41-2.24,1.79-3.51l5.92-19.91c.13-.43.23-.86.3-1.3l6.57-39.17,6.61-47.54c.04-.31.1-.62.17-.92l10.2-44.68c.13-.55.21-1.11.25-1.67l2.73-39.91c.05-.74.18-1.47.38-2.18l3.86-14.08c1.78-11.33,7.78-15.48,12.64-15.48h0c2.69,0,5.28-1,7.28-2.81,0,0,3.42-1.15,4.31-1.93,4.84-4.3,5.31-7.37,5.91-9.04l13.19-36.73c.13-.37.24-.74.34-1.12l3.45-17.1c1.56-9.56,4.76-14.72,6.13-16.12l8.31-10.32c8-6.67,12.35-6.76,16.48-4.94l24.69,10.89c.58.26,1.18.46,1.8.61l32.45,7.94,41.06,10.63c4.85.87,8.49,5.95,14.19,12.2,3.13,3.43,15.17,10.72,15.17,10.72,5.28,5.05,8.39,4.39,17.28,7.72l25.06,11.96c3.92,1.78,8.53,1.08,11.73-1.8,0,0,15.21-11.71,21.65-19.44,1.47-1.77,3.93-2.17,6.17-2.72,13.4-3.32,22.29-4.88,34.9-3.48,1.69.19,6.72.38,13.38,3.27l28.11,11.55c3.65,1.41,12.11,1.11,21.44-6.22l13.07-14.98,19.82-15.02c5.33-5.33,9.29-7.65,10.28-8.03l11.05-4.41c6.22-2.67,10.22-5.33,15.11-10.44l56.44-74c3.11-4,8.64-10.59,7.56-14.67l8.94-26.42c.32-.81.74-1.58,1.24-2.29l11.26-15.82c3.67-5.69,5.32-4.55,8.83-4.55h2.98c1.89,0,3.74-.49,5.37-1.43l5.6-3.04c4.44-3.11,7.64-3.4,10.23-2.86l31.41,6.56c2.37.5,4.84.18,7.02-.89l13.78-6.81c6.22-3.11,8.52-3.79,10.19-3.79l9.37-.21c6,.44,8.79-.06,10.09-.58,0,0,16.57-7.14,22.14-9.42,3.23-1.32,11.72-4.63,12.76-5.68l13.36-13.56c2.04-2.07,4.82-3.23,7.72-3.23h30.32c5.98,0,10.84-3.31,10.84-3.31v620.1Z"/>
    </g>
  </g>
</svg>