<?xml version="1.0" encoding="UTF-8"?>
<svg id="Layer_2" data-name="Layer 2" xmlns="http://www.w3.org/2000/svg" viewBox="0 0 701.95 323.95">
  <g id="Layer_1-2" data-name="Layer 1">
    <g>
      <polyline points="242.01 44.27 242.01 44.27 242.3 44.27 327.39 96.51 320.1 99.62 242.3 51.85"/>
      <polygon points="336.7 90.27 329.6 93.49 241.13 39.18 89.45 134.73 1.69 134.73 165.64 31.64 165.72 31.59 240.84 31.59 240.84 31.59 241.13 31.59 336.7 90.27"/>
      <polyline points="476.13 16.75 675.57 135 658.9 135 476.13 26.66"/>
      <g>
        <rect x="479.62" y="61.27" width="24.56" height="24.56"/>
        <rect x="448.08" y="61.27" width="24.56" height="24.56"/>
        <rect x="448.08" y="92.8" width="24.56" height="24.56"/>
        <rect x="479.62" y="92.8" width="24.56" height="24.56"/>
      </g>
      <g>
        <rect x="244.05" y="70.3" width="14.38" height="14.38"/>
        <rect x="225.59" y="70.3" width="14.38" height="14.38"/>
        <rect x="225.59" y="88.75" width="14.38" height="14.38"/>
        <rect x="244.05" y="88.75" width="14.38" height="14.38"/>
      </g>
      <polygon points="113.28 65.17 95.35 75.84 95.35 40.88 113.28 40.88 113.28 65.17"/>
      <polygon points="572.33 58.36 601.07 75.08 601.07 16.75 572.33 16.75 572.33 58.36"/>
      <polyline points="474.25 0 474.25 0 474.66 0 701.95 135 684.83 135 474.66 10.17 264.5 135 220.76 135 447.93 .07"/>
      <g>
        <path d="m130.27,279.1c-.8,3.66-2.29,8.79-4,14.44h8.27c-2.04-6.67-3.47-11.37-4.21-14.44h-.05Z"/>
        <path d="m611.84,278.91c-5.44,0-7.71,5.02-7.71,11.35s2.62,11.79,7.82,11.79c5.72,0,7.78-4.86,7.78-11.74,0-6.06-2.04-11.4-7.9-11.4Z"/>
        <path d="m376.36,279.1c-.8,3.66-2.29,8.79-4,14.44h8.27c-2.04-6.67-3.47-11.37-4.21-14.44h-.05Z"/>
        <path d="m28.43,279.33h-5.93v8.66h5.01c3.19,0,5.81-.85,5.81-4.49,0-3.04-2.2-4.16-4.89-4.16Z"/>
        <path d="m1.69,258.86v64.34h700.26v-64.34H1.69Zm37.6,39.66v.86c0,2.91.17,5.68.44,7.53h-6.46c-.47-1.38-.61-3.59-.61-7.64v-.87c0-3.77-1.37-5.09-5.67-5.09h-4.48v13.59h-6.58v-32.89h13.4c6.21,0,10.65,3.08,10.65,8.9,0,4.49-2.37,6.64-5.12,7.69,3.26,1.26,4.44,3.84,4.44,7.92Zm50.52,8.38h-21.52v-32.89h21.43v5.54h-14.9v7.45h14.3v5.55h-14.3v8.85h15.79l-.81,5.5Zm48.54,0l-2.49-7.81h-10.86l-2.32,7.81h-6.59c.43-1.28,9.57-31.44,10.06-32.89h8.67l10.57,32.89h-7.04Zm54.33,0h-20.66v-32.89h6.7v27.39h14.69l-.73,5.5Zm49.1,0h-21.52v-32.89h21.43v5.54h-14.9v7.45h14.3v5.55h-14.3v8.85h15.79l-.81,5.5Zm38.77.42c-7.18,0-11.84-3.62-12.24-10.13h6.63c.47,2.99,2.42,4.94,5.92,4.94,3.75,0,5.06-1.63,5.06-3.96,0-2.99-1.81-4.21-6.56-5.57-7.62-2.11-10.22-4.85-10.22-9.6,0-6.1,4.88-9.43,11.15-9.43,7.89,0,11.23,4.1,11.61,9.39h-6.58c-.41-2.43-1.59-4.27-5.08-4.27-2.95,0-4.4,1.37-4.4,3.65,0,2.45,1.65,3.15,6.31,4.5,8.4,2.45,10.6,5.81,10.6,10.53,0,5.36-3.56,9.94-12.17,9.94Zm61.35-27.77h-8.92v27.35h-6.75v-27.35h-8.92v-5.55h24.59v5.55Zm42.56,27.35l-2.49-7.81h-10.86l-2.32,7.81h-6.59c.43-1.28,9.57-31.44,10.06-32.89h8.67l10.57,32.89h-7.04Zm51.81-27.35h-8.92v27.35h-6.75v-27.35h-8.92v-5.55h24.59v5.55Zm48.35,27.35h-21.52v-32.89h21.43v5.54h-14.9v7.45h14.3v5.55h-14.3v8.85h15.79l-.81,5.5Zm33.81,0h-6.36v-7.59h6.36v7.59Zm38.97.47c-10.36,0-14.1-7.54-14.1-16.93s4.77-16.88,14.37-16.88c8.88,0,12.28,5.67,12.6,10.77h-6.55c-.66-2.71-1.75-5.39-6.27-5.39-5.47,0-7.26,5.55-7.26,11.47,0,6.26,1.72,11.63,7.34,11.63,4.39,0,5.71-3.04,6.33-5.5h6.59c-.89,5.55-4.62,10.83-13.06,10.83Zm54.29,0c-10.15,0-14.48-7.81-14.48-17.16,0-8.1,4.43-16.66,14.94-16.66,9.95,0,14.48,7.88,14.48,16.73,0,9.47-4.57,17.08-14.94,17.08Zm76.04-.48h-6.46v-12.28c0-5.59.09-12.28.23-15.98h-.26c-1.46,6.81-4.83,18.95-7.69,28.26h-5.79c-2.12-7.85-5.55-21.66-6.91-28.35h-.26c.28,3.84.42,10.96.42,16.63v11.72h-6.16v-32.89h10.02c2.36,7.68,5.3,19.15,6.21,24.14h.05c.71-4.27,4.47-16.37,6.94-24.14h9.64v32.89Z"/>
      </g>
      <polyline points="241.64 45.01 241.64 45.01 241.94 45.01 327.03 97.26 319.74 100.37 241.94 52.6"/>
      <polygon points="336.34 91.02 329.24 94.24 240.77 39.92 89.09 135.48 1.33 135.48 165.28 32.39 165.36 32.34 240.48 32.34 240.48 32.34 240.77 32.34 336.34 91.02"/>
      <polyline points="475.77 17.5 675.2 135.75 658.53 135.75 475.77 27.41"/>
      <g>
        <rect x="479.26" y="62.02" width="24.56" height="24.56"/>
        <rect x="447.72" y="62.02" width="24.56" height="24.56"/>
        <rect x="447.72" y="93.55" width="24.56" height="24.56"/>
        <rect x="479.26" y="93.55" width="24.56" height="24.56"/>
      </g>
      <g>
        <rect x="243.69" y="71.04" width="14.38" height="14.38"/>
        <rect x="225.23" y="71.04" width="14.38" height="14.38"/>
        <rect x="225.23" y="89.5" width="14.38" height="14.38"/>
        <rect x="243.69" y="89.5" width="14.38" height="14.38"/>
      </g>
      <polygon points="112.92 65.92 94.99 76.59 94.99 41.63 112.92 41.63 112.92 65.92"/>
      <polygon points="571.97 59.11 600.71 75.83 600.71 17.5 571.97 17.5 571.97 59.11"/>
      <polyline points="473.89 .75 473.89 .75 474.3 .75 701.59 135.75 684.47 135.75 474.3 10.92 264.14 135.75 220.4 135.75 447.57 .82"/>
      <g>
        <path d="m129.91,279.85c-.8,3.66-2.29,8.79-4,14.44h8.27c-2.04-6.67-3.47-11.37-4.21-14.44h-.05Z"/>
        <path d="m611.48,279.66c-5.44,0-7.71,5.02-7.71,11.35s2.62,11.79,7.82,11.79c5.72,0,7.78-4.86,7.78-11.74,0-6.06-2.04-11.4-7.9-11.4Z"/>
        <path d="m376,279.85c-.8,3.66-2.29,8.79-4,14.44h8.27c-2.04-6.67-3.47-11.37-4.21-14.44h-.05Z"/>
        <path d="m28.07,280.08h-5.93v8.66h5.01c3.19,0,5.81-.85,5.81-4.49,0-3.04-2.2-4.16-4.89-4.16Z"/>
        <path d="m1.33,259.61v64.34h700.26v-64.34H1.33Zm37.6,39.66v.86c0,2.91.17,5.68.44,7.53h-6.46c-.47-1.38-.61-3.59-.61-7.64v-.87c0-3.77-1.37-5.09-5.67-5.09h-4.48v13.59h-6.58v-32.89h13.4c6.21,0,10.65,3.08,10.65,8.9,0,4.49-2.37,6.64-5.12,7.69,3.26,1.26,4.44,3.84,4.44,7.92Zm50.52,8.38h-21.52v-32.89h21.43v5.54h-14.9v7.45h14.3v5.55h-14.3v8.85h15.79l-.81,5.5Zm48.54,0l-2.49-7.81h-10.86l-2.32,7.81h-6.59c.43-1.28,9.57-31.44,10.06-32.89h8.67l10.57,32.89h-7.04Zm54.33,0h-20.66v-32.89h6.7v27.39h14.69l-.73,5.5Zm49.1,0h-21.52v-32.89h21.43v5.54h-14.9v7.45h14.3v5.55h-14.3v8.85h15.79l-.81,5.5Zm38.77.42c-7.18,0-11.84-3.62-12.24-10.13h6.63c.47,2.99,2.42,4.94,5.92,4.94,3.75,0,5.06-1.63,5.06-3.96,0-2.99-1.81-4.21-6.56-5.57-7.62-2.11-10.22-4.85-10.22-9.6,0-6.1,4.88-9.43,11.15-9.43,7.89,0,11.23,4.1,11.61,9.39h-6.58c-.41-2.43-1.59-4.27-5.08-4.27-2.95,0-4.4,1.37-4.4,3.65,0,2.45,1.65,3.15,6.31,4.5,8.4,2.45,10.6,5.81,10.6,10.53,0,5.36-3.56,9.94-12.17,9.94Zm61.35-27.77h-8.92v27.35h-6.75v-27.35h-8.92v-5.55h24.59v5.55Zm42.56,27.35l-2.49-7.81h-10.86l-2.32,7.81h-6.59c.43-1.28,9.57-31.44,10.06-32.89h8.67l10.57,32.89h-7.04Zm51.81-27.35h-8.92v27.35h-6.75v-27.35h-8.92v-5.55h24.59v5.55Zm48.35,27.35h-21.52v-32.89h21.43v5.54h-14.9v7.45h14.3v5.55h-14.3v8.85h15.79l-.81,5.5Zm33.81,0h-6.36v-7.59h6.36v7.59Zm38.97.47c-10.36,0-14.1-7.54-14.1-16.93s4.77-16.88,14.37-16.88c8.88,0,12.28,5.67,12.6,10.77h-6.55c-.66-2.71-1.75-5.39-6.27-5.39-5.47,0-7.26,5.55-7.26,11.47,0,6.26,1.72,11.63,7.34,11.63,4.39,0,5.71-3.04,6.33-5.5h6.59c-.89,5.55-4.62,10.83-13.06,10.83Zm54.29,0c-10.15,0-14.48-7.81-14.48-17.16,0-8.1,4.43-16.66,14.94-16.66,9.95,0,14.48,7.88,14.48,16.73,0,9.47-4.57,17.08-14.94,17.08Zm76.04-.48h-6.46v-12.28c0-5.59.09-12.28.23-15.98h-.26c-1.46,6.81-4.83,18.95-7.69,28.26h-5.79c-2.12-7.85-5.55-21.66-6.91-28.35h-.26c.28,3.84.42,10.96.42,16.63v11.72h-6.16v-32.89h10.02c2.36,7.68,5.3,19.15,6.21,24.14h.05c.71-4.27,4.47-16.37,6.94-24.14h9.64v32.89Z"/>
      </g>
      <g>
        <path d="m64.92,156.26v12.6h-24.75v69.83h-15.3v-69.83H0v-12.6h64.92Z"/>
        <path d="m149.12,197.47c0,6.04-1.01,11.64-3.02,16.79-2.01,5.15-4.84,9.6-8.48,13.37-3.64,3.76-8.02,6.7-13.14,8.81-5.12,2.11-10.79,3.16-17.01,3.16s-11.9-1.05-17.04-3.16c-5.14-2.11-9.54-5.04-13.2-8.81-3.66-3.76-6.5-8.22-8.51-13.37-2.01-5.15-3.02-10.74-3.02-16.79s1-11.64,3.02-16.79c2.01-5.15,4.85-9.6,8.51-13.37,3.66-3.76,8.06-6.7,13.2-8.81,5.14-2.11,10.82-3.16,17.04-3.16s11.89,1.06,17.01,3.19c5.12,2.13,9.5,5.06,13.14,8.81,3.64,3.74,6.47,8.19,8.48,13.34,2.01,5.15,3.02,10.74,3.02,16.79Zm-15.7,0c0-4.52-.6-8.58-1.79-12.17-1.19-3.59-2.91-6.64-5.15-9.15-2.24-2.51-4.96-4.43-8.16-5.76-3.21-1.33-6.82-2-10.84-2s-7.64.67-10.87,2c-3.22,1.33-5.97,3.25-8.22,5.76-2.26,2.51-3.99,5.56-5.21,9.15-1.21,3.59-1.82,7.65-1.82,12.17s.61,8.58,1.82,12.17c1.21,3.59,2.95,6.63,5.21,9.12,2.26,2.49,5,4.4,8.22,5.73,3.22,1.33,6.85,2,10.87,2s7.63-.66,10.84-2c3.2-1.33,5.93-3.24,8.16-5.73,2.24-2.49,3.95-5.53,5.15-9.12,1.19-3.59,1.79-7.65,1.79-12.17Z"/>
        <path d="m153.56,156.26h12.86c1.33,0,2.44.31,3.33.94.89.63,1.49,1.47,1.79,2.54l14,49.3c.34,1.22.65,2.54.94,3.96.28,1.42.56,2.94.82,4.53.3-1.6.64-3.11,1-4.53.36-1.42.75-2.75,1.17-3.96l16.16-49.3c.3-.88.9-1.67,1.79-2.39.89-.72,1.98-1.08,3.27-1.08h4.49c1.33,0,2.43.31,3.3.94.87.63,1.48,1.47,1.82,2.54l16.04,49.3c.83,2.43,1.55,5.13,2.16,8.09.26-1.48.54-2.91.82-4.28.28-1.37.58-2.64.88-3.82l14-49.3c.26-.95.85-1.77,1.76-2.45.91-.68,2.01-1.03,3.3-1.03h12.01l-25.55,82.42h-13.83l-17.98-56.32c-.23-.72-.46-1.5-.71-2.34-.25-.83-.48-1.73-.71-2.68-.23.95-.46,1.84-.71,2.68-.25.84-.48,1.62-.71,2.34l-18.15,56.32h-13.83l-25.55-82.42Z"/>
        <path d="m289.99,156.34c.46.06.86.17,1.22.34.36.17.71.42,1.05.74.34.32.72.75,1.14,1.28l43.18,55.12c-.15-1.33-.26-2.63-.31-3.91-.06-1.27-.09-2.46-.09-3.56v-50.1h13.48v82.42h-7.91c-1.21,0-2.22-.19-3.02-.57-.8-.38-1.57-1.06-2.33-2.05l-43.01-54.89c.11,1.22.2,2.42.26,3.62s.09,2.29.09,3.28v50.62h-13.48v-82.42h8.02c.68,0,1.25.03,1.71.08Z"/>
        <path d="m435.7,238.68h-15.42v-36.02h-38.57v36.02h-15.42v-82.42h15.42v35.45h38.57v-35.45h15.42v82.42Z"/>
        <path d="m531.23,197.47c0,6.04-1.01,11.64-3.02,16.79-2.01,5.15-4.84,9.6-8.48,13.37-3.64,3.76-8.02,6.7-13.14,8.81-5.12,2.11-10.79,3.16-17.01,3.16s-11.9-1.05-17.04-3.16c-5.14-2.11-9.54-5.04-13.2-8.81-3.66-3.76-6.5-8.22-8.51-13.37-2.01-5.15-3.02-10.74-3.02-16.79s1-11.64,3.02-16.79c2.01-5.15,4.85-9.6,8.51-13.37,3.66-3.76,8.06-6.7,13.2-8.81,5.14-2.11,10.82-3.16,17.04-3.16s11.89,1.06,17.01,3.19c5.12,2.13,9.5,5.06,13.14,8.81,3.64,3.74,6.47,8.19,8.48,13.34,2.01,5.15,3.02,10.74,3.02,16.79Zm-15.7,0c0-4.52-.6-8.58-1.79-12.17-1.19-3.59-2.91-6.64-5.15-9.15-2.24-2.51-4.96-4.43-8.16-5.76-3.21-1.33-6.82-2-10.84-2s-7.64.67-10.87,2c-3.22,1.33-5.97,3.25-8.22,5.76-2.26,2.51-3.99,5.56-5.21,9.15-1.21,3.59-1.82,7.65-1.82,12.17s.61,8.58,1.82,12.17c1.21,3.59,2.95,6.63,5.21,9.12,2.26,2.49,5,4.4,8.22,5.73,3.22,1.33,6.85,2,10.87,2s7.63-.66,10.84-2c3.2-1.33,5.93-3.24,8.16-5.73,2.24-2.49,3.95-5.53,5.15-9.12,1.19-3.59,1.79-7.65,1.79-12.17Z"/>
        <path d="m586.39,208.27c.55,1.31,1.09,2.63,1.62,3.96.53-1.37,1.08-2.72,1.65-4.05.57-1.33,1.18-2.6,1.82-3.82l24.35-45.66c.3-.57.62-1.03.94-1.37.32-.34.68-.59,1.08-.74.4-.15.84-.25,1.34-.29.49-.04,1.08-.06,1.76-.06h11.55v82.42h-13.48v-53.24c0-.99.03-2.07.09-3.25.06-1.18.14-2.37.26-3.59l-24.86,46.74c-.57,1.06-1.31,1.89-2.22,2.48-.91.59-1.97.88-3.19.88h-2.1c-1.21,0-2.28-.29-3.19-.88-.91-.59-1.65-1.42-2.22-2.48l-25.2-46.91c.15,1.25.26,2.48.31,3.68.06,1.2.09,2.31.09,3.33v53.24h-13.48v-82.42h11.55c.68,0,1.27.02,1.76.06.49.04.94.13,1.34.29.4.15.77.4,1.11.74.34.34.66.8.97,1.37l24.58,45.77c.64,1.22,1.24,2.48,1.79,3.79Z"/>
        <path d="m701,156.26v12.2h-36.47v22.86h28.73v11.8h-28.73v23.31h36.47v12.25h-51.89v-82.42h51.89Z"/>
      </g>
    </g>
  </g>
</svg>